<?xml version="1.0" encoding="utf-8"?>
<!-- Generator: Adobe Illustrator 28.1.0, SVG Export Plug-In . SVG Version: 6.00 Build 0)  -->
<svg version="1.1" id="Layer_1" xmlns="http://www.w3.org/2000/svg" xmlns:xlink="http://www.w3.org/1999/xlink" x="0px" y="0px"
	 viewBox="0 0 480 480" enable-background="new 0 0 480 480" xml:space="preserve">
<filter  filterUnits="objectBoundingBox" id="AI_Shadow_1">
	<feGaussianBlur  in="SourceAlpha" result="blur" stdDeviation="7"></feGaussianBlur>
	<feOffset  dx="4" dy="4" in="blur" result="offsetBlurredAlpha"></feOffset>
	<feFlood  flood-color="#B8B8B8" flood-opacity="1" result="offsetColor"></feFlood>
	<feComposite  in="offsetColor" in2="offsetBlurredAlpha" operator="in" result="offsetBlur"></feComposite>
	<feMerge>
		<feMergeNode  in="offsetBlur"></feMergeNode>
		<feMergeNode  in="SourceGraphic"></feMergeNode>
	</feMerge>
</filter>
<g filter="url(#AI_Shadow_1)">
	<g>
		<path fill="#571844" d="M203.8765869,324.3139038l-27.118103-25.4678345
			c-44.914856-42.1121826-72.1049194-75.3964844-81.5524902-99.8425293
			c-15.2362061-39.3974609-13.6096802-79.375061,4.8640137-119.9530029
			c11.1033936-24.3909302,26.1932373-44.2298584,45.2099609-59.6013794C59.8458252,56.1938477,0,141.0985718,0,239.99823
			C0,372.5494385,107.4505615,480,239.9971313,480c21.6243896,0,42.5527344-2.9039917,62.4840088-8.2658691
			c-1.9454346-8.0731812-4.4968262-16.253479-7.7060547-24.548584
			C279.645813,408.0549927,249.3477783,367.0895386,203.8765869,324.3139038z"/>
	</g>
	<g>
		<path fill="#F05939" d="M143.9057007,184.0961914c11.644043,30.1143799,31.6531372,51.6136475,60.0046387,64.4777222
			c28.3718262,12.8651123,57.3484497,13.5714111,86.9639282,2.1245117
			c28.8460083-11.1552124,49.4058838-31.0966797,61.6807861-59.8165283
			c12.2838745-28.7301025,12.7479248-57.7687378,1.3933716-87.1182861
			c-11.746582-30.3858643-31.730835-52.0316162-59.9573364-64.949707
			c-28.230957-12.9129639-57.1592407-13.6434937-86.7701416-2.1920776
			c-28.8358765,11.1506958-49.4633179,31.1101685-61.8734131,59.881958
			C132.9329834,125.2821655,132.4541626,154.4761963,143.9057007,184.0961914z"/>
	</g>
	<g>
		<path fill="#FCC20E" d="M364.3162842,34.675354c13.7550049,14.7957764,24.6150513,32.4281616,32.5430298,52.9418335
			c15.618103,40.3943481,14.7034302,80.8945312-2.739502,121.5119629
			c-17.4475708,40.6060791-46.133728,68.638916-86.053833,84.0734253
			c-14.4230347,5.5759277-31.4255371,9.0465088-51.0223999,10.4309082
			c48.4090576,42.4511719,80.5117188,84.1275024,96.3190918,125.005127
			c2.4927979,6.4465942,4.631958,12.8740845,6.4612427,19.2723389C431.6337891,406.4329224,480,328.8883667,480,239.99823
			C480,152.9656982,433.6624756,76.7469482,364.3162842,34.675354z"/>
	</g>
</g>
</svg>
